<svg id="e8ae010d-3feb-4beb-9134-b7051c6707e9" data-name="Layer 3" xmlns="http://www.w3.org/2000/svg" viewBox="0 0 474.56 303.36"><defs><style>.b6f4b467-3517-4fbf-af0f-3e314cd873aa{fill:#4f46e5;}</style></defs><path class="b6f4b467-3517-4fbf-af0f-3e314cd873aa" d="M429,295.25c3.86,11.86-20.78,3.69-29,5.9-.72-13.13-4.53-25.45-9.58-37.49-20.18-14.21,43.63-82.65,1.36-63.4-9.69,2.9-16-5-20.53-12,6.14,28,33.23-.05,33.6,14.12.15,17.26-15,27.14-19.72,42.35-2.88,22.46,35.1,71.45-11.35,53.18,26.2,6.49-16.75-8.65,11-.61C363,287,397.13,299,371.39,287.93c18.1,3.78,4.89-2.07-4.16-5.57,8.17,1.31,20.11,5.44,5.65-.61,8.06.17,2.9-.55-1.16-3.25,7.55-2.26.63-2.43-3.67-5.33,8.67.39,5.07-2.32-.79-5.12,19.19,3.29-12.12-6.75,6.58-2.71-1.25-1.74-11-4.42-6.81-4.48,9.18-6.15-28.57-10.9-36.52-16.87,9.33.56,45.84,19.1,35.88,6.91,1-1.54,3.3,1.13,4.08,0-1.68-3.61-8.19-3.33-10.86-6.26,3.32-.92,6.05,1.47,9.22,1.2-9.5-5.19-14.59-7.47-.74-3.35-10.11-7.73-24.61-10.24-3.18-5.32-19.11-8.87,3.26.27-7.3-6.17,12.37,3.23,1.25-2-4.15-4.69,4.29.53,8.28,2.27,12.69,2.13-13.44-3.95-33.79-16.79-36.29.41-.49.43-1.83.31-.83,1.62-.24,1.27-3.92.27-4.19,2,1.49,4.07-6.5,2-4,4,8.52,2-5.86,1.63-1.42,3.07,2.32.09.41,2.31,1.52,3-1.56.57-3.39.28-4.45,2.13-1.22,1.84-8.8,10.93-5.42,11.53-5.94.78-.92,7.37-1.53,11.08,1.74,4.67-3.92,14.44,1.07,15.8,8.62,4.67-4.86-2.67-4.81,4.71-13.61,30-114.77,16.16-69.31-34.43,13.88-10.93-9.87,9.34-2.6,19.44.64,5.54,4.34,11.3,6.18,15.86-2.05.15-5.46-6.28-6-3.24,1.62,3.68,8.42,10.18,9.48,2.79-.91-7.34-10.3-13.77-8.73-21.17,1.61,8.4,15.72,19.56,7.15,26.48,2.38,1.15,5.9-3.93,8.45-1.65.49.62,1.35-.36,1.28-.78,5.28-1.82,18.09-20.77,7.07-10.39,4-7.27,4.34-8.53-2.62-2.35,5.27-6.8-.21-3.63,8.83-10.08-.1-.69-4.09-1.06-1.23-1.92,7.73-.31-21.72-5.08-6.71-19.61,2.49-8.65,20.23-7,26.59-5.48-3.56-8.71-40.15,8.65-24.86-3.36,7.2,0,15.77-3.46,22.35-1.8-2.33,1.45-6.83.64-9.83,1.58,2.64.62,5.22-.25,7.84-.08,9.82,5,6-3.15-.36-3.41-3.06-.72,2.32-1,3.55-.71-6.87-3.86-15.59,2.67-23.19.87,35.55-1.38,13.57-15.68,29.95-7.24,6.76.51-4.76-3.64-5-5.4,3.73-.83-2.26-1.68-3-4.23,27.63,4.91-8.47,1.12-4-17.15-7.81,4.07-15.14,13.31-23.53,15.11-17.61.13-3.82.76,4.41-3.64-4.93.63,3.22-1.26-1.33-3.11,1.94,1,6.15-1.05,2.43-1-5.33.44-6.36-6-10.94-6.45-2.23-.25-4.48-.41-7.3-.66,32.38,10.09-38.94-3.93.37-5-24.71.68,13.24-7-15.79-3.72,1.43-1.13,2-2-.55-1.89,1.75-1.28,3.82.38,4.55-1.64-2.12-2.92-11.07-7.3-2.56-9-2.09-2.16-2.35-3.86-1.27-7,1.74-9.38-7.54,11-2.17,15.53-.45,8.86-5.87-13.41,0-18,1.54-4.7,2.86-2.84,6.08-1.81-.27-4-7.07-5.88-5.37-10.72-.28,4.63,12.13,10.38,10.75,6.45-1.57-.43-4.15-.26-4.94-1.8,2.42,1.07,12.15-.33,5.62-.76-9.63-.34-9.25-10.29-4.71-16.55-4.48,3.73-5.93-.34-1.4-2.81-.32-3.26-8.66,3.65-10,.08,3.83-2.92,11.4-2.09,16.57-2.75-2.28-2-17.55-.28-10.61-2.66,13-1.16,2.3.07-3.51-3.26-1.3-1.76.35-4,.21-6-1.37-2.56-5.81,2.71-4.4,6.41-4.94-3,2.19-8.71,2.13-12.13-7.08.22,3.8-4.32-.49-6.08-1-.08-1.1-.51-.87-1.36-.46-3.3,7-7.29,1.05-7,4.74-7.5-.47-2.41-4.08,1.25-2.2,2.14-.37,5.54-1.18,7.59-2.42-2.51-1.44-7.73,1.33-10.43,2.81-4.24,5.12-22.33,5.1-9.89.65-4.87,16.28-15.37,6.92-17.31,2.3-2,4.49-3.32-.12-3.58-30.24-10.65,38.54-4.06-6.5-68.52-7.17-7.62,33-9.94,29.3,12.57.35,1.19,1.32,1.47,2.69,1.49-8.21,3.23,10.31,4.35.07,7.8-1.4,4,12.85-1.8,13.58-4.73-3.56,1.61-2.56-2.25-4.42-5,0-1.46,1.84-2-.36-3.38C257.19,11.7,258,5.57,255,1.93c76.9-10.19,39.87,26.59,70.83,17.39,16.53-3.22,18.78,12.94,14.39,24.84C343.6,42.4,347,40.92,350.9,44c-2.09-.06-8.72.19-4.81,2.39,4,1.45,3.64,7.7,7.31,4.91,1.07,1.13-2,4.25,0,5.48,5-6,5.52,7.25,9,10.48,2.66,3-6.25,6.39-.69,6.93,11.15,2-1.63,18.75-4.08,5.79,11.95,32.63,12,15.64.9,56.63-4.86,19-10,38-15,57-9.18-.13-8.32,9.33-10.49,17.69.66,10.41,22.22,9.26,30.54,14.39,7.17,2,8.34-17.72,7.47-21.31-6.51-4-20.24-3.61-22.37-10.87,1.2-7,4.83-6.63,11.09-4.45,2,.42,4,1.47,6.15.08,3-.35-3.15,14.84.84,9.14,4.79-10.52-2.39-14.22-11.94-15.61-6.33-3.16.33-10.16,7.37-4.39-6.82-2-9,3.37-5.91,1.88.82-1.94,2.36-.1,4.59-.08,1,.8,5.74,2,4.05,3.36.45,2.55,7.14,2.71,9.52,4.54,5.87,3.47,6.61-6.12,10.33-5.6,4.1,0,5.51,3.22,7.89,5.59-2.7-12.41-26.51-7.83-36.26-14.72-4.81-4.18,1.5-14,8.26-8.23-5.37-1.39-11.3,4.42-4.72,7.37,17.19,4.9-2.89.46-.72-4,3-3.47,10.51,7.66,18.74,5.42,22.16-16.8-29.91-1.61-18.27-23.65,1.87-4.77,2.93,4,1.46,5.89-.85,5.57,1.22-.17,1.18-2.42.34-5.81,6.19-.67,8.95-4.12,2.59-3.35,9.38,1.31,10.86-3.9.52-2.88,5.76-2.91,5.05-6-6.32-6.23-23.75,15.08-24.65,1.11,2-23.79,8.54-8.83,18.81-18.28-22.81,4.66-4.56-34.43-6.79-21.28-.63,5.86-3.17,13.08-4,17.86,4-4.89,4.05-14.19,6-20.55,6.23-3.92-2.35,14.92-1.22,19,2.66-.56-.23-7.92,4-6.73,14.91-5.07,17.45-64.64,25.46-83,11.15-45.33-3.38,20.29-7.7,36.4-9.66,23.41-5.31,63-25.36,75.43C394.5,132.39,399.86,34.22,412,6.21c5.58,7.27-20.5,77.25-20.3,102.29,72.24,8.42,33.47,89.9,42.81,157.33C409.88,255.94,426.39,283.24,429,295.25ZM256.6,201.87c3.34.64,4.35-2.17,6.19-4.09-1.06,4.12,1.36,2.46,2.8-.07.64,1.33-1.95,7.24.89,4.66,2.34-6,7.66-8.71,13.06-11.12-2.79,3.1-9.32,4.75-10.22,10.82-4.16,5.44,21-12.16,10.22-10.82C287.44,187.74,260,195.28,256.6,201.87ZM260,49.36c-10.39.88-8.55,5.48-10.4-3.8-5.71-13.93-15.24,4.69-8.26,10.41C245.87,58.92,254.14,50.51,260,49.36Zm13.51,138c.24,1.33-1.07,1.46-1.36.27-1.51-5.65-5-3.2-4.39,1.66-2,2.23-9.07,2.64-9.48,7,6-3.68,14.16-4.37,21-7.25,16.05.07,30.21,6.46,43.38-6.18,8.09-5.26,10.27-12.23,15.85-18.1,14.73-6.3,24.48-30.94,0-24.22-6.19.46-26.43,6.6-15.08.58,10.66-.95,26.25-9.34,4.58-4-21.69-1.4-13.89,26.27-36.79,5.67-5.21-1.57-8.47-4.51-8.23-10.27-10.38,12.91,30.59,17.68,16.44,24.61C314.1,179.26,268.67,178,273.52,187.36Zm3.82-152.44c-8-16.91-25.73-2-24.52,12C260.7,45.87,278.16,49.68,277.34,34.92Zm18.25,174.19c2.1.76,4.88.76,4.23-2.39-2.2,2.09-2.2,2.09-3.25-1,1.63-12.68,14.37-8.48-9.83-12.56-23.73,8.52,22.5,27.86,8.41,18.53C297.71,211,294.67,210.07,295.59,209.11ZM280.88,73.3c-3.1,11.37,2.67,27.9,14.3,13.8,7.16-6.59-6.11-6.59-7.42-9.57,2.4-.51,4.37,1.65,7.45.64C289.82,77,285.59,71.65,280.88,73.3Zm116.23,44.49c2.89,4.32,6.9,8.81,10.41,13,7.94,3.42,5.44-5.59,5.31-10.22,3.36,3.94,3.82,9.24,6.59,13.7C417.35,117.23,411,114.64,397.11,117.79Zm-15.75,39.05c-6.83-15.4-35.32,10.93-2.92,5.28C375.74,159.67,380.69,159.76,381.36,156.84ZM305.57,95.09c-7.95-2.66-21.31,6-27.22-2.6C276.59,116.19,291.05,98.69,305.57,95.09Zm3.43,2c-10.47,1.93-20.26,12.6-30.65,9C286.63,114.91,301.65,103.84,309,97.05ZM412.32,131.2c-8.13,4.19-10.34-9.69-17.37-11.94.15,1.36,1.64,1.63,1.77,2.8-6.9-4.85,7.91,12.76,11,13.33C402.37,129.23,410.72,137.85,412.32,131.2ZM268.4,263.62c9.81,1.9,20.82-1.69,29.81,4.18C293.55,256.76,278,264,268.4,263.62Zm143.13-90c3.37-8.72,1.58-20.68,3.57-30.41C413.35,152.55,407.76,165,411.53,173.62ZM397.83,161c1.21-5.79-8.34-3.12-8.47-8.51-.7-5.57-3.19-5.43-3.27.19C385.89,157.9,394.68,161,397.83,161ZM310.54,106.4c-6.2,0-13.68,5.68-20.61,5.48C296.46,116.62,305.74,110.56,310.54,106.4Zm-37.22,74.26c6.18-1.23,13.3-3.11,18.87-4.29-3.54-4.56-15.21-1-18.13,2.4C284.34,175.73,281.42,177.36,273.32,180.66Zm141.47-3.57c4.49,11.73,13.55,12.78,8.41,27.77C431.35,193.21,422,185.27,414.79,177.09Zm-121.7,38.7c-3.81-4.33-12.87-5.59-13.57-13C277.16,210.82,286.58,216.17,293.09,215.79Zm.2-182.91C275.72,33.22,293,13.26,302,26,291.87,8,273.1,37.79,293.29,32.88Zm-2,25.9c-10.64,4.45-21.24,9-31.5,14.23C270.65,69,281.39,64.74,291.33,58.78Zm-54.16,87.29c-7.28-.31-8.25,16.42.86,13.07C229.37,157.57,234,150.37,237.17,146.07ZM311,197.41c-6-5.63-17.23-7-25.18-6.73C294.61,192,302.87,193.79,311,197.41Zm-20.25,60c-6.27,4.73-14.72,1.67-22.24,3.83C274.77,259.78,289,265.15,290.77,257.46Zm11.78-137.82c-6-.44-10.7-4.46-16.3-6C290.89,117.68,295.9,120.82,302.55,119.64Zm110.39-2.47c5.29,2.81,6.5,8.16,8.56,13.19C421.79,122.91,418,117.46,412.94,117.17Zm-111,30c-2.8-4.45-7.63-7.22-10.17-11.95C292.77,141.13,298.3,143.32,301.91,147.14Zm66.65-20.53c-2.46,3.21-2.47,11.71-3.74,16.88C366.87,139,369.07,131,368.56,126.61ZM274.82,294.68c5.18-3.9,7.55-11.24,14.51-12.41C282,281.64,279.07,290.1,274.82,294.68ZM433.43,254.6c-4.47,3.73-9.68,6.21-14.73,9C424.14,261.41,429.87,259.77,433.43,254.6ZM273.65,287c2.42-1.2,4.43-7.06,3.77-11.34C276.48,279.78,274.43,283.07,273.65,287ZM303.22,90.56c1.32-2.41-1.23-7.46-4-9C301.61,83.92,300.49,89.08,303.22,90.56ZM401,135.38c-1.9-3.63-4-7.12-7.7-9.27C396.82,128.44,397,133.49,401,135.38Zm-49.36,59c1.32-8.46,8.89-1,13.29-2.58C360.14,191.14,350.88,185.7,351.67,194.36Zm-61.27,60.5c-2.85.2-5.94,3.16-9.87,3.52C284.34,259.24,289.76,257.94,290.4,254.86ZM236.33,151.48c3.36-1.43,7,.42,10.66-.64C243.09,149,237.21,149.52,236.33,151.48ZM277.84,41.69c2.35-1.59,8-2.09,8.61-4.38A14.9,14.9,0,0,0,277.84,41.69ZM232.89,287c0-2.72-1.67-6.08-3-8.54C228.39,280.28,231.29,286,232.89,287Zm56.75-35.84c-1.07-3.19-7.23-1.76-6.54,2.22C284.66,250.07,287.28,251.75,289.64,251.15ZM229.36,284c-.15-2.93-1.93-6.64-2.12-10C227.14,277,226.32,282.48,229.36,284Zm33.9-192.21c3.31,1.33,8.68.06,10.78-2.61C270.79,91.25,267.05,91.37,263.26,91.76ZM281,244.61c-2,2.33-.57,7.86-1,11.24C280.19,252.18,281.07,247.86,281,244.61ZM291,222.16c3.5.25,6.92,1.54,10.49.59C298,223.22,294.64,220.79,291,222.16Zm71.81-25.44c-2.88-1.09-5.68-2.4-8.87-2.32C356.88,195.43,359.7,196.7,362.85,196.72ZM403,134.18c-2.48-2.47-3.65-6-6.63-8.05C398.83,128.6,399.87,132.24,403,134.18Zm-19.2,12.15c-2.67,1-2.85,3.35-.35,5.63A7.13,7.13,0,0,1,383.8,146.33Zm2.71,21.18a21.24,21.24,0,0,1-3.56,7.68C385.55,173.93,387,170.91,386.51,167.51Zm-90.62,93.2c.08-2.38-2.65-3.39-4.43-1.39C293.24,259.05,294.62,261,295.89,260.71Zm-58-206.34c.74-1.89-1-4.29-1.3-7C236.34,50,236.19,53.37,237.86,54.37ZM427.13,222.66c-1.07-1.51-2.56-1.86-6.34-1.55C422.93,221.65,424.84,222.83,427.13,222.66Zm.39,5.13c-1-1.18-4.43.73-6.25.68A10.47,10.47,0,0,0,427.52,227.79ZM290.57,141.28c1.09-.89-3.44-3.67-3.75-2.23A13.07,13.07,0,0,0,290.57,141.28Zm107.27-.44a5.92,5.92,0,0,0,3.87-2.62A6.74,6.74,0,0,0,397.84,140.84Zm31.51,53.54a10.15,10.15,0,0,0-1.33,5.74C428.56,198.23,428.79,196.27,429.35,194.38ZM236,154.17c.89,1.58,1.86,2,4.61,1.76A18.86,18.86,0,0,0,236,154.17ZM335.83,182c-1.12,1.58-2.28,3.12-3.51,4.6A7.59,7.59,0,0,0,335.83,182Zm41.16-63c1.46,1.39,1.91,1.53,4,1.36A5,5,0,0,0,377,118.91Z" transform="translate(-212.72 -0.13)"/><path class="b6f4b467-3517-4fbf-af0f-3e314cd873aa" d="M379.51,71.88C417.28-81.7,360.91,130,346.32,187.51,350.11,200.2,371.06,93.06,379.51,71.88Z" transform="translate(-212.72 -0.13)"/><path class="b6f4b467-3517-4fbf-af0f-3e314cd873aa" d="M408.17,6.5c-1.71-3.51-2.57-.76-1.36,1.15,2.34,11.56-6.71,23.73-7,35.83-1.74,9-20.06,92.2-19.61,55.76,9.82-3.71,6.72-20.29,12-30.07,1.55-10.07,2.89-8.93-3-3.3,1.76-18.08,3.21-12.63-2.65,0C384.65,61.6,388.62,55,389,50.07c.21-3.73,1.66-.11,3.27.38,3.73,1.17.41,4.25,1.93,6.95,4.89-15.21,6.09-31.2,12.65-45.71.18-2.58-3.23,1.57-4.36-1.47C402.63,4.32,407.79-3.56,408.17,6.5ZM379.75,107.43c1.95-1.74.94-4.47,2-6.53C380,102.73,380.36,105.22,379.75,107.43Z" transform="translate(-212.72 -0.13)"/><path class="b6f4b467-3517-4fbf-af0f-3e314cd873aa" d="M340.62,301.15c-4.72-3.16-30.05-9.62-21.73-10.24-5.57-3-10.54,3.19-4.88,7.33C321.37,303.79,331.72,300.2,340.62,301.15Z" transform="translate(-212.72 -0.13)"/><path class="b6f4b467-3517-4fbf-af0f-3e314cd873aa" d="M400.88,1.92c.05,2.88-2.46,9.5,1.61,9.73C400.85,9.19,405.66,1.12,400.88,1.92Z" transform="translate(-212.72 -0.13)"/><path class="b6f4b467-3517-4fbf-af0f-3e314cd873aa" d="M398,1.92c-.08,2.19-.65,4.38,0,6.89C398.88,6.71,401.17,1.3,398,1.92Z" transform="translate(-212.72 -0.13)"/><path class="b6f4b467-3517-4fbf-af0f-3e314cd873aa" d="M410,1.92c.3,1.68-.31,3.33-.08,5.05C410.62,5.63,412.63,1.47,410,1.92Z" transform="translate(-212.72 -0.13)"/><path class="b6f4b467-3517-4fbf-af0f-3e314cd873aa" d="M256,217.31c-51.11.87-22.13,44.82-28.77,13.68,2.93-14,45.29-14.1,8.28-6.88,5.14-1.78,25.25-3.4,11.72-.94-3.65-.31-16.26,5-11.48,4.73,3-.6.48,1.06-.28,2,2.25-.58,4.41-1.72,7.33-.62-2.85.09-13.7,4.32-7.84,3.32,1.92-1.24.31,1.93,2.4,1,8.26-1.1-3.79,1.38-4.79,5.13,5.76-.23,5.93.51.31,1.67-.67.36-3.24-.88-1.84,1.77-.15.49-2.1.59-1.64,1.64,1.79,1.36,12.67-3.29,10.37.74-.83,3.31-5.18,4.93-9.28,6.3C239.21,254.49,258.85,232.72,256,217.31Z" transform="translate(-212.72 -0.13)"/><path class="b6f4b467-3517-4fbf-af0f-3e314cd873aa" d="M247.56,244.47c6.85,3,3.72-6.62,10.28-7.72C254.07,236.72,249.8,241.91,247.56,244.47Z" transform="translate(-212.72 -0.13)"/><path class="b6f4b467-3517-4fbf-af0f-3e314cd873aa" d="M227.73,207.76c1.52,3.74,7.83,6.7,13.21,6.09C236.18,211.82,231.47,210.85,227.73,207.76Z" transform="translate(-212.72 -0.13)"/><path class="b6f4b467-3517-4fbf-af0f-3e314cd873aa" d="M226.81,220.64c1.1-2.11,1.63-5.73-.07-6.89C225.6,215.49,226.43,218.24,226.81,220.64Z" transform="translate(-212.72 -0.13)"/><path class="b6f4b467-3517-4fbf-af0f-3e314cd873aa" d="M223,137.44c1-2.14-1.86-2.56-1.24-4.22C218.44,133.7,221.91,136.41,223,137.44Z" transform="translate(-212.72 -0.13)"/><path class="b6f4b467-3517-4fbf-af0f-3e314cd873aa" d="M246,250.28c-1.75,1.37-3.69,2.56-4.44,3.78Z" transform="translate(-212.72 -0.13)"/><path class="b6f4b467-3517-4fbf-af0f-3e314cd873aa" d="M257,225.8c-.11-1.36,1.61-4.32.3-4.79C257,222.58,256.17,224.07,257,225.8Z" transform="translate(-212.72 -0.13)"/><path class="b6f4b467-3517-4fbf-af0f-3e314cd873aa" d="M224.58,255.66a3.83,3.83,0,0,0,0,4.34Z" transform="translate(-212.72 -0.13)"/><path class="b6f4b467-3517-4fbf-af0f-3e314cd873aa" d="M247.56,244.47c-.94-.07-1.65.88-2.13,1.79C246.45,246,247.61,246,247.56,244.47Z" transform="translate(-212.72 -0.13)"/><path class="b6f4b467-3517-4fbf-af0f-3e314cd873aa" d="M362.89,204c6.31.95,2.91,17.43-1.48,18.67-15.74-2-31.7-8-19.68-25.51C339.14,223.25,337.23,188.53,362.89,204Zm-20.32,10.79c1.82-4.47,2.34-9.3,3.68-13.92C343.73,205.16,343.35,210,342.57,214.79Zm3.82.82c1.81-4,1.71-8.52,3.3-12.58C347.38,206.9,347,211.28,346.39,215.61Z" transform="translate(-212.72 -0.13)"/><path class="b6f4b467-3517-4fbf-af0f-3e314cd873aa" d="M379.56,71.84c1.26,3.69-5.76,16.07-1.91,15.8C384,100,390.72,77.5,386.47,78.75c-.67-9.64-1.46,9.5-5.54,9.88,3.18-3.26,2.16-8.15,3.47-12.21-2.33-6.29-3.44,8.55-4.9,10.72C378.48,82.65,384.76,73.57,379.56,71.84Z" transform="translate(-212.72 -0.13)"/><path class="b6f4b467-3517-4fbf-af0f-3e314cd873aa" d="M399.54,23.19c-1.37,1.48-1.54,9.94-3,6,.05-3,2-6.42,2-8.86-6,2.58-1.78,14.28-7.61,18.38C401.23,45.08,397.5,29.54,399.54,23.19Z" transform="translate(-212.72 -0.13)"/><path class="b6f4b467-3517-4fbf-af0f-3e314cd873aa" d="M382.61,65.64c5.49-14.72,9.33-31.57,11.75-46.54A351.23,351.23,0,0,0,382.61,65.64Z" transform="translate(-212.72 -0.13)"/><path class="b6f4b467-3517-4fbf-af0f-3e314cd873aa" d="M366.83,188.11c-4.37-3.05-10.54-4.19-15.07-5.44C354,186.14,362.62,187.49,366.83,188.11Z" transform="translate(-212.72 -0.13)"/><path class="b6f4b467-3517-4fbf-af0f-3e314cd873aa" d="M364.31,86.51c-1,.13-2.22,2.17-.72,2.42C364.54,88.91,365.54,86.8,364.31,86.51Z" transform="translate(-212.72 -0.13)"/><path class="b6f4b467-3517-4fbf-af0f-3e314cd873aa" d="M326.51,261.49c2.43-8.65,2.36-17.76,13-10.73,23.2,1.15,8.21,14.19,15.06,25.68C347,270,327.89,272.6,326.51,261.49Zm3.08,3c2.39-3.42,2.41-9.92,4-14.36C331.88,247.82,329.49,261.92,329.59,264.47Zm4,1.43c2.11-3.45,2.42-9.59,3.3-14.15C334.59,254.81,333.78,262,333.56,265.9Z" transform="translate(-212.72 -0.13)"/><path class="b6f4b467-3517-4fbf-af0f-3e314cd873aa" d="M332.56,286.56c-9.47-10.29,13.13-5.17,17.85-1.77-2.46,1.28-6.59-2.4-7.83-.27,1.89,2,11.21.4,5.65,3.48C362.09,281.6,353.75,299,332.56,286.56Zm4.89-3.67c-.55-1.33-2.51-.26-4.16-.59C334.64,283.28,336.85,284.1,337.45,282.89Z" transform="translate(-212.72 -0.13)"/><path class="b6f4b467-3517-4fbf-af0f-3e314cd873aa" d="M360.3,278.52c-4.93-3.22,5.23-16.93.93-21.63-4.09,3.31-3.38,12.22-5.43,17.39-2.44,7.94-26.64-8.36-36-9.46C329.83,271.26,347.55,278.67,360.3,278.52Z" transform="translate(-212.72 -0.13)"/><path class="b6f4b467-3517-4fbf-af0f-3e314cd873aa" d="M336.53,279.59a32,32,0,0,0-17.92-3.69A95.69,95.69,0,0,0,336.53,279.59Z" transform="translate(-212.72 -0.13)"/><path class="b6f4b467-3517-4fbf-af0f-3e314cd873aa" d="M322.85,247.61c-.45,4.46-3.41,10.21-2.46,14.1C321.62,258,324.57,251,322.85,247.61Z" transform="translate(-212.72 -0.13)"/><path class="b6f4b467-3517-4fbf-af0f-3e314cd873aa" d="M324.77,283.68c1.29-3.79-7.46-7.43-5.25-3.79C323.31,279,324.13,289.64,324.77,283.68Z" transform="translate(-212.72 -0.13)"/><path class="b6f4b467-3517-4fbf-af0f-3e314cd873aa" d="M328.4,283.53c-1.35-9.14-2.85,5.13.8,5.76C329.89,287.78,327.91,285.56,328.4,283.53Z" transform="translate(-212.72 -0.13)"/><path class="b6f4b467-3517-4fbf-af0f-3e314cd873aa" d="M327.87,250.89a53.89,53.89,0,0,0-2.73,12.41C326.26,259.21,327.84,255.22,327.87,250.89Z" transform="translate(-212.72 -0.13)"/><path class="b6f4b467-3517-4fbf-af0f-3e314cd873aa" d="M343,142.45c-4.05.05-9.39,2.68-12.35,4.89C334.68,148.28,339.18,144,343,142.45Z" transform="translate(-212.72 -0.13)"/><path class="b6f4b467-3517-4fbf-af0f-3e314cd873aa" d="M336,155.69c1.93-3.13,5.24-4.73,8.25-7.3C340.67,148.94,336.4,152.8,336,155.69Z" transform="translate(-212.72 -0.13)"/><path class="b6f4b467-3517-4fbf-af0f-3e314cd873aa" d="M346.68,147.82c4.18,2.69,2.12,1.65,2,5.43C351.84,153,349.7,146,346.68,147.82Z" transform="translate(-212.72 -0.13)"/><path class="b6f4b467-3517-4fbf-af0f-3e314cd873aa" d="M269.82,43.39c-10.53,6-16.86-6.42-6.36-11.79C249.94,33.57,259.7,54.08,269.82,43.39Z" transform="translate(-212.72 -0.13)"/><path class="b6f4b467-3517-4fbf-af0f-3e314cd873aa" d="M269.77,43.36c10.05-2.44,3.62-17.09-5.14-12.56C272.59,30.35,277.33,38.77,269.77,43.36Z" transform="translate(-212.72 -0.13)"/><path class="b6f4b467-3517-4fbf-af0f-3e314cd873aa" d="M271.27,38.36c-1,2-3.51,1.91-4.51,3C267.65,43.44,271.41,40,271.27,38.36Z" transform="translate(-212.72 -0.13)"/><path class="b6f4b467-3517-4fbf-af0f-3e314cd873aa" d="M241.57,50.5c.94-2.45.6-5.21,2.11-7.26,2.63-6.45,9.86,14.72-2.39,12.67C238.22,50.63,241.49,39.88,241.57,50.5Zm2.24,1.27c-.32,1-1,.09-1.53.37C244.67,59.46,246,46.73,243.81,51.77Z" transform="translate(-212.72 -0.13)"/><path class="b6f4b467-3517-4fbf-af0f-3e314cd873aa" d="M420.1,92.18V83h56.8v9.19Zm23.32,54.47V96.77h9.18v49.88Z" transform="translate(-212.72 -0.13)"/><path class="b6f4b467-3517-4fbf-af0f-3e314cd873aa" d="M496.54,99.15l6,11-20.2,36.49H470.25ZM541,146.65H528.85l-23.24-42-6.06-11,6.06-10.95h0l6.07,11Z" transform="translate(-212.72 -0.13)"/><path class="b6f4b467-3517-4fbf-af0f-3e314cd873aa" d="M607,128.38a18.25,18.25,0,0,1-18.27,18.27,17.78,17.78,0,0,0-4.76,0H550.16V96.88h9.19V110h26.08a9.07,9.07,0,0,0,.47-17.8H550.16V82.75h33.77a18.26,18.26,0,0,1,15.85,9.19c.05.07.09.15.14.23a18.3,18.3,0,0,1-.06,17.8,1,1,0,0,1-.08.14,18.1,18.1,0,0,1-1.77,2.55,18.93,18.93,0,0,1,2.8,2,18.48,18.48,0,0,1,3.84,4.77A18.27,18.27,0,0,1,607,128.38Zm-9.2,0a9.09,9.09,0,0,0-7.36-8.91h-31v17.78h31.23A9.08,9.08,0,0,0,597.76,128.38Z" transform="translate(-212.72 -0.13)"/><path class="b6f4b467-3517-4fbf-af0f-3e314cd873aa" d="M654,150.48,680.76,81h6.52l-26.84,69.48Z" transform="translate(-212.72 -0.13)"/><path class="b6f4b467-3517-4fbf-af0f-3e314cd873aa" d="M619.24,113.87a18.16,18.16,0,0,0,13.07,5.52h19.87a9,9,0,0,1,6.82,3.14l3.51-9.11a18.2,18.2,0,0,0-10.34-3.21H633.92c-.52,0-1-.07-1.58-.07q-.47,0-.93,0a9,9,0,0,1,.9-18h20.17a9.07,9.07,0,0,1,8.72,8.55h6.2l2.05-5.3A18.28,18.28,0,0,0,668,92.14h0A18.23,18.23,0,0,0,652.62,83H632.31a18.22,18.22,0,0,0-13.07,30.91Z" transform="translate(-212.72 -0.13)"/><path class="b6f4b467-3517-4fbf-af0f-3e314cd873aa" d="M653.28,137.39a8,8,0,0,1-1.1.08H632.34a9.08,9.08,0,0,1-9.05-8.57h-9.2a18.26,18.26,0,0,0,18.25,17.75h17.38Z" transform="translate(-212.72 -0.13)"/><path class="b6f4b467-3517-4fbf-af0f-3e314cd873aa" d="M560.55,153.78v20.13a9.47,9.47,0,0,1-2.5,6.47,16.65,16.65,0,0,1-2.07,1.87,15.86,15.86,0,0,1-19.09,0,16.8,16.8,0,0,1-2.07-1.88,9.49,9.49,0,0,1-2.49-6.46V153.78h4.56v17.48a9.57,9.57,0,0,0,9.2,9.61h.69a9.57,9.57,0,0,0,9.2-9.61V153.78Z" transform="translate(-212.72 -0.13)"/><path class="b6f4b467-3517-4fbf-af0f-3e314cd873aa" d="M591.9,171.89A9.06,9.06,0,0,1,584,185.44h-9.86a9.08,9.08,0,0,1-9.07-8.82h4.57a4.52,4.52,0,0,0,4.5,4.26H584a4.5,4.5,0,0,0,0-9h-9.87a9.05,9.05,0,0,1-6.5-2.74,9.33,9.33,0,0,1-1.37-1.82,9.06,9.06,0,0,1,7.87-13.55h10.09a9.06,9.06,0,0,1,7.64,4.56h0a9,9,0,0,1,1.19,4.26h-4.57a4.52,4.52,0,0,0-4.33-4.26h-10a4.5,4.5,0,0,0-.45,9l.46,0c.27,0,.53,0,.79,0H584A9.07,9.07,0,0,1,591.9,171.89Z" transform="translate(-212.72 -0.13)"/><path class="b6f4b467-3517-4fbf-af0f-3e314cd873aa" d="M597.64,185.44V153.73h4.56v31.71Zm0-31.71v31.71h4.56V153.73Zm4.41.15h-4.26v31.41h4.26Z" transform="translate(-212.72 -0.13)"/><path class="b6f4b467-3517-4fbf-af0f-3e314cd873aa" d="M632.81,174.47h4.91a15.88,15.88,0,0,1-30.81-2.58,16.28,16.28,0,0,1-.17-2.33,15,15,0,0,1,.16-2.24,15.88,15.88,0,0,1,31-2.18H633a11.32,11.32,0,0,0-21.52,2.18,11.47,11.47,0,0,0,0,4.57,11.31,11.31,0,0,0,21.27,2.58Z" transform="translate(-212.72 -0.13)"/><path class="b6f4b467-3517-4fbf-af0f-3e314cd873aa" d="M651.83,161.83l3,5.47-10,18.14h-6Zm22.09,23.61h-6l-11.55-20.87-3-5.44,3-5.45h0l3,5.45Z" transform="translate(-212.72 -0.13)"/><polygon class="b6f4b467-3517-4fbf-af0f-3e314cd873aa" points="286.83 168.63 286.83 185.31 291.39 185.31 291.39 167.79 288.33 164.73 286.83 168.63"/><polygon class="b6f4b467-3517-4fbf-af0f-3e314cd873aa" points="301.05 167.76 291.03 157.75 289.23 162.4 291.39 164.56 291.39 164.56 301.05 174.22 302.79 172.49 304.28 170.99 310.49 164.78 310.49 185.31 315.06 185.31 315.06 153.76 301.05 167.76"/></svg>